<svg width="320" height="80" viewBox="0 0 320 80" xmlns="http://www.w3.org/2000/svg">
  <defs>
    <style>
      .logo-text { 
        font-family: 'Inter', 'Arial', sans-serif; 
        font-weight: 600; 
        fill: #01411c;
      }
      .logo-icon { 
        fill: #01411c; 
      }
      .logo-icon-center { 
        fill: #21965f; 
      }
    </style>
  </defs>
  
  <!-- Network/Connectivity Icon -->
  <g transform="translate(0, 20)">
    <!-- Central hub -->
    <circle cx="25" cy="20" r="5" class="logo-icon-center"/>
    
    <!-- Connected nodes positioned around the center -->
    <circle cx="10" cy="5" r="3" class="logo-icon"/>
    <circle cx="40" cy="5" r="3" class="logo-icon"/>
    <circle cx="10" cy="35" r="3" class="logo-icon"/>
    <circle cx="40" cy="35" r="3" class="logo-icon"/>
    <circle cx="25" cy="2" r="3" class="logo-icon"/>
    <circle cx="5" cy="20" r="3" class="logo-icon"/>
    <circle cx="45" cy="20" r="3" class="logo-icon"/>
    <circle cx="25" cy="38" r="3" class="logo-icon"/>
    
    <!-- Connection lines from center to all nodes -->
    <line x1="25" y1="20" x2="10" y2="5" stroke="#01411c" stroke-width="2"/>
    <line x1="25" y1="20" x2="40" y2="5" stroke="#01411c" stroke-width="2"/>
    <line x1="25" y1="20" x2="10" y2="35" stroke="#01411c" stroke-width="2"/>
    <line x1="25" y1="20" x2="40" y2="35" stroke="#01411c" stroke-width="2"/>
    <line x1="25" y1="20" x2="25" y2="2" stroke="#01411c" stroke-width="2"/>
    <line x1="25" y1="20" x2="5" y2="20" stroke="#01411c" stroke-width="2"/>
    <line x1="25" y1="20" x2="45" y2="20" stroke="#01411c" stroke-width="2"/>
    <line x1="25" y1="20" x2="25" y2="38" stroke="#01411c" stroke-width="2"/>
  </g>
  
  <!-- Text: ITNOA -->
  <g transform="translate(70, 15)">
    <!-- Letter I -->
    <rect x="0" y="5" width="8" height="40" class="logo-text"/>
    <rect x="-3" y="5" width="14" height="6" class="logo-text"/>
    <rect x="-3" y="39" width="14" height="6" class="logo-text"/>
    
    <!-- Letter T -->
    <rect x="25" y="5" width="35" height="6" class="logo-text"/>
    <rect x="38.5" y="5" width="8" height="40" class="logo-text"/>
    
    <!-- Letter N -->
    <rect x="75" y="5" width="8" height="40" class="logo-text"/>
    <rect x="105" y="5" width="8" height="40" class="logo-text"/>
    <polygon points="83,5 83,35 105,15 105,5" class="logo-text"/>
    
    <!-- Letter O -->
    <path d="M130 5 C145 5 155 15 155 25 C155 35 145 45 130 45 C115 45 105 35 105 25 C105 15 115 5 130 5 Z M130 11 C119 11 111 19 111 25 C111 31 119 39 130 39 C141 39 149 31 149 25 C149 19 141 11 130 11 Z" class="logo-text"/>
    
    <!-- Letter A -->
    <polygon points="170,45 175,30 185,30 190,45 198,45 185,5 175,5 162,45" class="logo-text"/>
    <rect x="177" y="20" width="11" height="5" class="logo-text"/>
  </g>
</svg>